# xmcd CD database file
#
# Track frame offsets:
#	150
#	13259
#	22391
#	33888
#	50116
#	63016
#	74446
#	86111
#	99874
#	117544
#	131899
#	155892
#	172387
#	185239
#	199736
#
# Disc length: 2830 seconds
#
# Revision: 0
# Processed by: cddbd v1.5.1PL0 Copyright (c) Steve Scherf et al.
# Submitted via: CDex 1.51
#
DISCID=eb0b0c0f
DTITLE=Conozca Cuba primero - Conozca Cuba primero
DYEAR=2000
DGENRE=Salsa
TTITLE0=Que bella es Cuba (Malena Burke y NG la banda)
TTITLE1=La tierra del son (Omara Portuondo)
TTITLE2=Alborada (Guillermo Portabales)
TTITLE3=Noche cubana (Esther Borja y Trio Taicuba)
TTITLE4=Son de la Loma (Elena Burke)
TTITLE5=Ire a Santiago (Luis Carbonell)
TTITLE6=Conozca Cuba primero (Ramon Veloz)
TTITLE7=Amorosa guajira (Jaqueline Castellanos)
TTITLE8=Luna sobre matanzas (Frank Dominguez)
TTITLE9=Cienfuegos (Bobby Carcasses)
TTITLE10=La Habana de noche (Peruchin)
TTITLE11=Cancion de mi Habana (Ela Calvo)
TTITLE12=La sitiera (Abelardo Barroso)
TTITLE13=Santiago de Cuba (Los Tainos)
TTITLE14=Un paraiso es mi Cuba (Hermanas Marti)
EXTD=YEAR: 2000
EXTT0=
EXTT1=
EXTT2=
EXTT3=
EXTT4=
EXTT5=
EXTT6=
EXTT7=
EXTT8=
EXTT9=
EXTT10=
EXTT11=
EXTT12=
EXTT13=
EXTT14=
PLAYORDER=
